<?xml version="1.0" standalone="no"?><!-- Generator: Gravit.io --><svg xmlns="http://www.w3.org/2000/svg" xmlns:xlink="http://www.w3.org/1999/xlink" style="isolation:isolate" viewBox="71 129.376 55 55" width="55" height="55"><g id="Group"><g id="Group"><path d=" M 93.001 156.876 C 93.001 159.914 95.462 162.375 98.5 162.375 C 101.538 162.375 103.999 159.914 103.999 156.876 C 103.999 153.838 101.538 151.377 98.5 151.377 C 95.462 151.377 93.001 153.838 93.001 156.876 Z " fill="rgb(68,189,153)"/><path d=" M 104.069 166.312 L 107.114 170.888 C 111.83 167.984 114.999 162.821 114.999 156.876 C 114.999 147.765 107.614 140.377 98.5 140.377 C 89.389 140.377 82.001 147.765 82.001 156.876 C 82.001 162.821 85.17 167.984 89.883 170.888 L 92.934 166.312 C 89.695 164.395 87.499 160.911 87.499 156.876 C 87.499 150.8 92.424 145.875 98.5 145.875 C 104.576 145.875 109.501 150.8 109.501 156.876 C 109.501 160.911 107.302 164.402 104.069 166.312 Z " fill="rgb(68,189,153)"/><path d=" M 98.5 129.376 C 83.313 129.376 71 141.689 71 156.876 C 71 166.635 76.119 175.158 83.783 180.035 L 86.831 175.46 C 80.645 171.566 76.499 164.728 76.499 156.876 C 76.499 144.727 86.351 134.875 98.5 134.875 C 110.649 134.875 120.501 144.727 120.501 156.876 C 120.501 164.728 116.352 171.573 110.165 175.46 L 113.217 180.035 C 120.881 175.158 126 166.635 126 156.876 C 126 141.689 113.69 129.376 98.5 129.376 Z " fill="rgb(68,189,153)"/><path d=" M 88.188 184.376 L 108.813 184.376 L 98.5 167.188 L 88.188 184.376 Z " fill="rgb(68,189,153)"/></g></g></svg>