<?xml version="1.0" standalone="no"?><!-- Generator: Gravit.io --><svg xmlns="http://www.w3.org/2000/svg" xmlns:xlink="http://www.w3.org/1999/xlink" style="isolation:isolate" viewBox="71 337.666 55 55" width="55" height="55"><g id="Group"><g id="Group"><path d=" M 93.001 365.166 C 93.001 368.204 95.462 370.664 98.5 370.664 C 101.538 370.664 103.999 368.204 103.999 365.166 C 103.999 362.128 101.538 359.667 98.5 359.667 C 95.462 359.667 93.001 362.128 93.001 365.166 Z " fill="rgb(255,255,255)"/><path d=" M 104.069 374.602 L 107.114 379.178 C 111.83 376.274 114.999 371.111 114.999 365.166 C 114.999 356.055 107.614 348.666 98.5 348.666 C 89.389 348.666 82.001 356.055 82.001 365.166 C 82.001 371.111 85.17 376.274 89.883 379.178 L 92.934 374.602 C 89.695 372.685 87.499 369.201 87.499 365.166 C 87.499 359.09 92.424 354.165 98.5 354.165 C 104.576 354.165 109.501 359.09 109.501 365.166 C 109.501 369.201 107.302 372.692 104.069 374.602 Z " fill="rgb(255,255,255)"/><path d=" M 98.5 337.666 C 83.313 337.666 71 349.979 71 365.166 C 71 374.924 76.119 383.448 83.783 388.325 L 86.831 383.75 C 80.645 379.856 76.499 373.018 76.499 365.166 C 76.499 353.017 86.351 343.164 98.5 343.164 C 110.649 343.164 120.501 353.017 120.501 365.166 C 120.501 373.018 116.352 379.862 110.165 383.75 L 113.217 388.325 C 120.881 383.448 126 374.924 126 365.166 C 126 349.979 113.69 337.666 98.5 337.666 Z " fill="rgb(255,255,255)"/><path d=" M 88.188 392.666 L 108.813 392.666 L 98.5 375.478 L 88.188 392.666 Z " fill="rgb(255,255,255)"/></g></g></svg>