<?xml version="1.0" standalone="no"?><!-- Generator: Gravit.io --><svg xmlns="http://www.w3.org/2000/svg" xmlns:xlink="http://www.w3.org/1999/xlink" style="isolation:isolate" viewBox="71 217 342.63 57.752" width="342.63" height="57.752"><g id="Group"><g id="Group"><g id="Group"><path d=" M 93.001 246.876 C 93.001 249.914 95.462 252.375 98.5 252.375 C 101.538 252.375 103.999 249.914 103.999 246.876 C 103.999 243.838 101.538 241.377 98.5 241.377 C 95.462 241.377 93.001 243.838 93.001 246.876 Z " fill="rgb(26,26,26)"/><path d=" M 104.069 256.312 L 107.114 260.888 C 111.83 257.984 114.999 252.821 114.999 246.876 C 114.999 237.765 107.614 230.377 98.5 230.377 C 89.389 230.377 82.001 237.765 82.001 246.876 C 82.001 252.821 85.17 257.984 89.883 260.888 L 92.934 256.312 C 89.695 254.395 87.499 250.911 87.499 246.876 C 87.499 240.8 92.424 235.875 98.5 235.875 C 104.576 235.875 109.501 240.8 109.501 246.876 C 109.501 250.911 107.302 254.402 104.069 256.312 Z " fill="rgb(26,26,26)"/><path d=" M 98.5 219.376 C 83.313 219.376 71 231.689 71 246.876 C 71 256.635 76.119 265.158 83.783 270.035 L 86.831 265.46 C 80.645 261.566 76.499 254.728 76.499 246.876 C 76.499 234.727 86.351 224.875 98.5 224.875 C 110.649 224.875 120.501 234.727 120.501 246.876 C 120.501 254.728 116.352 261.573 110.165 265.46 L 113.217 270.035 C 120.881 265.158 126 256.635 126 246.876 C 126 231.689 113.69 219.376 98.5 219.376 Z " fill="rgb(26,26,26)"/><path d=" M 88.188 274.376 L 108.813 274.376 L 98.5 257.188 L 88.188 274.376 Z " fill="rgb(26,26,26)"/></g></g><path d=" M 271.691 263.435 C 279.664 263.435 283.66 259.525 283.66 253.969 C 283.66 249.117 280.607 245.91 276.732 245.464 L 276.732 245.173 C 280.47 244.298 282.751 241.932 282.751 237.834 C 282.751 232.364 278.858 228.317 270.731 228.317 L 257.836 228.317 L 257.836 263.435 L 271.691 263.435 Z  M 264.609 234.01 L 270.576 234.01 C 274.743 234.01 276.098 236.136 276.098 238.571 C 276.098 241.589 274.057 243.184 270.216 243.184 L 264.609 243.184 L 264.609 234.01 Z  M 277.041 253.215 C 277.041 255.941 275.378 257.742 271.279 257.742 L 264.609 257.742 L 264.609 248.105 L 271.537 248.105 C 275.24 248.105 277.041 250.454 277.041 253.215 Z  M 303.905 251.706 C 303.905 255.804 302.053 258.291 299.069 258.291 C 296.549 258.291 294.662 256.593 294.662 253.455 L 294.662 237.097 L 288.009 237.097 L 288.009 253.644 C 288.009 261.034 292.485 263.778 296.754 263.778 C 300.081 263.778 302.619 262.286 304.059 260.331 L 304.333 260.331 L 304.333 263.435 L 310.575 263.435 L 310.575 237.097 L 303.905 237.097 L 303.905 251.706 Z  M 338.348 245.499 C 337.388 240.183 333.067 236.754 327.082 236.754 C 319.537 236.754 314.839 242.326 314.839 250.266 C 314.839 258.273 319.486 263.932 327.099 263.932 C 333.032 263.932 337.25 260.502 338.296 255.478 L 332.072 254.587 C 331.403 256.953 329.74 258.479 327.099 258.479 C 323.138 258.479 321.218 255.204 321.218 250.266 C 321.218 245.379 323.173 242.155 327.099 242.155 C 330.014 242.155 331.54 243.938 332.158 246.425 L 338.348 245.499 Z  M 358.799 263.435 L 366.103 263.435 L 355.747 248.328 L 365.469 237.097 L 357.667 237.097 L 349.488 246.819 L 349.093 246.819 L 349.093 228.317 L 342.44 228.317 L 342.44 263.435 L 349.093 263.435 L 349.093 255.153 L 351.391 252.563 L 358.799 263.435 Z  M 380.484 263.932 C 387.326 263.932 390.755 260.057 391.716 256.439 L 385.748 254.827 C 385.045 256.782 383.605 258.479 380.433 258.479 C 376.643 258.479 374.586 256.113 374.157 252.203 L 391.99 252.203 L 391.99 249.408 C 391.99 240.955 386.897 236.754 380.21 236.754 C 372.322 236.754 367.727 242.567 367.727 250.609 C 367.727 258.839 372.579 263.932 380.484 263.932 Z  M 380.158 242.155 C 383.657 242.155 385.68 244.521 385.68 247.625 L 374.346 247.625 C 375.049 244.161 377.106 242.155 380.158 242.155 Z  M 409.097 237.097 L 404.502 237.097 L 404.502 231.472 L 397.849 231.472 L 397.849 237.097 L 394.574 237.097 L 394.574 242.035 L 397.849 242.035 L 397.849 256.387 C 397.849 261.017 401.312 263.778 405.308 263.778 C 407.743 263.778 409.406 263.315 409.903 263.109 L 408.857 257.982 C 408.411 258.102 407.777 258.188 407.16 258.188 C 405.702 258.188 404.502 257.828 404.502 255.375 L 404.502 242.035 L 409.097 242.035 L 409.097 237.097 Z  M 171.271 239.343 C 169.556 232.004 163.846 227.837 156.816 227.837 C 147.882 227.837 141.315 234.576 141.315 245.927 C 141.315 257.227 147.882 263.915 156.816 263.915 C 163.846 263.915 169.505 259.799 171.237 252.546 L 164.601 251.809 C 163.572 255.787 160.554 257.793 156.816 257.793 C 151.758 257.793 148.088 254.107 148.088 245.927 C 148.088 237.731 151.758 233.959 156.816 233.959 C 160.554 233.959 163.658 235.999 164.687 240.08 L 171.271 239.343 Z  M 190.384 263.435 L 196.798 263.435 L 196.798 245.756 C 196.798 239.068 191.688 236.754 186.458 236.754 C 180.851 236.754 176.512 239.377 175.295 244.23 L 181.554 245.139 C 182.034 243.355 183.834 241.949 186.286 241.949 C 188.601 241.949 190.093 243.27 190.093 245.619 L 190.093 246.013 C 190.093 247.402 187.692 247.488 185.36 247.745 C 178.69 248.362 174.763 250.917 174.763 256.01 C 174.763 261.103 178.656 263.966 183.337 263.966 C 187.041 263.966 189.167 262.149 190.076 260.468 L 190.384 260.468 L 190.384 263.435 Z  M 190.093 254.655 C 190.093 256.953 187.864 258.925 184.932 258.925 C 182.737 258.925 181.245 257.81 181.245 255.924 C 181.245 253.644 182.84 252.58 185.995 252.22 C 187.195 252.066 189.596 251.723 190.093 251.174 L 190.093 254.655 Z  M 223.01 244.247 C 222.153 239.48 218.877 236.754 212.704 236.754 C 206.068 236.754 201.593 239.857 201.593 244.967 C 201.593 249.168 204.645 251.449 208.881 252.46 L 213.51 253.506 C 215.191 253.884 216.717 254.398 216.717 256.216 C 216.717 257.742 214.814 258.994 212.241 258.994 C 209.652 258.994 207.646 257.656 207.012 255.255 L 200.65 255.976 C 201.679 260.948 205.348 263.932 211.95 263.932 C 218.5 263.932 223.542 260.914 223.542 255.461 C 223.542 251.226 220.524 249.237 216.477 248.345 L 211.59 247.299 C 209.635 246.87 208.195 246.03 208.195 244.538 C 208.195 242.824 210.184 241.726 212.43 241.726 C 214.985 241.726 216.614 243.132 216.957 244.864 L 223.01 244.247 Z  M 240.46 237.097 L 235.865 237.097 L 235.865 231.472 L 229.212 231.472 L 229.212 237.097 L 225.936 237.097 L 225.936 242.035 L 229.212 242.035 L 229.212 256.387 C 229.212 261.017 232.675 263.778 236.671 263.778 C 239.105 263.778 240.769 263.315 241.266 263.109 L 240.22 257.982 C 239.774 258.102 239.14 258.188 238.522 258.188 C 237.065 258.188 235.865 257.828 235.865 255.375 L 235.865 242.035 L 240.46 242.035 L 240.46 237.097 Z " fill-rule="evenodd" fill="rgb(26,26,26)"/></g></svg>