<?xml version="1.0" standalone="no"?><!-- Generator: Gravit.io --><svg xmlns="http://www.w3.org/2000/svg" xmlns:xlink="http://www.w3.org/1999/xlink" style="isolation:isolate" viewBox="71 128 342.63 57.752" width="342.63" height="57.752"><g id="Group"><g id="Group"><g id="Group"><path d=" M 93.001 156.876 C 93.001 159.914 95.462 162.375 98.5 162.375 C 101.538 162.375 103.999 159.914 103.999 156.876 C 103.999 153.838 101.538 151.377 98.5 151.377 C 95.462 151.377 93.001 153.838 93.001 156.876 Z " fill="rgb(68,189,153)"/><path d=" M 104.069 166.312 L 107.114 170.888 C 111.83 167.984 114.999 162.821 114.999 156.876 C 114.999 147.765 107.614 140.377 98.5 140.377 C 89.389 140.377 82.001 147.765 82.001 156.876 C 82.001 162.821 85.17 167.984 89.883 170.888 L 92.934 166.312 C 89.695 164.395 87.499 160.911 87.499 156.876 C 87.499 150.8 92.424 145.875 98.5 145.875 C 104.576 145.875 109.501 150.8 109.501 156.876 C 109.501 160.911 107.302 164.402 104.069 166.312 Z " fill="rgb(68,189,153)"/><path d=" M 98.5 129.376 C 83.313 129.376 71 141.689 71 156.876 C 71 166.635 76.119 175.158 83.783 180.035 L 86.831 175.46 C 80.645 171.566 76.499 164.728 76.499 156.876 C 76.499 144.727 86.351 134.875 98.5 134.875 C 110.649 134.875 120.501 144.727 120.501 156.876 C 120.501 164.728 116.352 171.573 110.165 175.46 L 113.217 180.035 C 120.881 175.158 126 166.635 126 156.876 C 126 141.689 113.69 129.376 98.5 129.376 Z " fill="rgb(68,189,153)"/><path d=" M 88.188 184.376 L 108.813 184.376 L 98.5 167.188 L 88.188 184.376 Z " fill="rgb(68,189,153)"/></g></g><path d=" M 271.691 174.435 C 279.664 174.435 283.66 170.525 283.66 164.969 C 283.66 160.117 280.607 156.91 276.732 156.464 L 276.732 156.173 C 280.47 155.298 282.751 152.932 282.751 148.834 C 282.751 143.364 278.858 139.317 270.731 139.317 L 257.836 139.317 L 257.836 174.435 L 271.691 174.435 Z  M 264.609 145.01 L 270.576 145.01 C 274.743 145.01 276.098 147.136 276.098 149.571 C 276.098 152.589 274.057 154.184 270.216 154.184 L 264.609 154.184 L 264.609 145.01 Z  M 277.041 164.215 C 277.041 166.941 275.378 168.742 271.279 168.742 L 264.609 168.742 L 264.609 159.105 L 271.537 159.105 C 275.24 159.105 277.041 161.454 277.041 164.215 Z  M 303.905 162.706 C 303.905 166.804 302.053 169.291 299.069 169.291 C 296.549 169.291 294.662 167.593 294.662 164.455 L 294.662 148.097 L 288.009 148.097 L 288.009 164.644 C 288.009 172.034 292.485 174.778 296.754 174.778 C 300.081 174.778 302.619 173.286 304.059 171.331 L 304.333 171.331 L 304.333 174.435 L 310.575 174.435 L 310.575 148.097 L 303.905 148.097 L 303.905 162.706 Z  M 338.348 156.499 C 337.388 151.183 333.067 147.754 327.082 147.754 C 319.537 147.754 314.839 153.326 314.839 161.266 C 314.839 169.273 319.486 174.932 327.099 174.932 C 333.032 174.932 337.25 171.502 338.296 166.478 L 332.072 165.587 C 331.403 167.953 329.74 169.479 327.099 169.479 C 323.138 169.479 321.218 166.204 321.218 161.266 C 321.218 156.379 323.173 153.155 327.099 153.155 C 330.014 153.155 331.54 154.938 332.158 157.425 L 338.348 156.499 Z  M 358.799 174.435 L 366.103 174.435 L 355.747 159.328 L 365.469 148.097 L 357.667 148.097 L 349.488 157.819 L 349.093 157.819 L 349.093 139.317 L 342.44 139.317 L 342.44 174.435 L 349.093 174.435 L 349.093 166.153 L 351.391 163.563 L 358.799 174.435 Z  M 380.484 174.932 C 387.326 174.932 390.755 171.057 391.716 167.439 L 385.748 165.827 C 385.045 167.782 383.605 169.479 380.433 169.479 C 376.643 169.479 374.586 167.113 374.157 163.203 L 391.99 163.203 L 391.99 160.408 C 391.99 151.955 386.897 147.754 380.21 147.754 C 372.322 147.754 367.727 153.567 367.727 161.609 C 367.727 169.839 372.579 174.932 380.484 174.932 Z  M 380.158 153.155 C 383.657 153.155 385.68 155.521 385.68 158.625 L 374.346 158.625 C 375.049 155.161 377.106 153.155 380.158 153.155 Z  M 409.097 148.097 L 404.502 148.097 L 404.502 142.472 L 397.849 142.472 L 397.849 148.097 L 394.574 148.097 L 394.574 153.035 L 397.849 153.035 L 397.849 167.387 C 397.849 172.017 401.312 174.778 405.308 174.778 C 407.743 174.778 409.406 174.315 409.903 174.109 L 408.857 168.982 C 408.411 169.102 407.777 169.188 407.16 169.188 C 405.702 169.188 404.502 168.828 404.502 166.375 L 404.502 153.035 L 409.097 153.035 L 409.097 148.097 Z  M 171.271 150.343 C 169.556 143.004 163.846 138.837 156.816 138.837 C 147.882 138.837 141.315 145.576 141.315 156.927 C 141.315 168.227 147.882 174.915 156.816 174.915 C 163.846 174.915 169.505 170.799 171.237 163.546 L 164.601 162.809 C 163.572 166.787 160.554 168.793 156.816 168.793 C 151.758 168.793 148.088 165.107 148.088 156.927 C 148.088 148.731 151.758 144.959 156.816 144.959 C 160.554 144.959 163.658 146.999 164.687 151.08 L 171.271 150.343 Z  M 190.384 174.435 L 196.798 174.435 L 196.798 156.756 C 196.798 150.068 191.688 147.754 186.458 147.754 C 180.851 147.754 176.512 150.377 175.295 155.23 L 181.554 156.139 C 182.034 154.355 183.834 152.949 186.286 152.949 C 188.601 152.949 190.093 154.27 190.093 156.619 L 190.093 157.013 C 190.093 158.402 187.692 158.488 185.36 158.745 C 178.69 159.362 174.763 161.917 174.763 167.01 C 174.763 172.103 178.656 174.966 183.337 174.966 C 187.041 174.966 189.167 173.149 190.076 171.468 L 190.384 171.468 L 190.384 174.435 Z  M 190.093 165.655 C 190.093 167.953 187.864 169.925 184.932 169.925 C 182.737 169.925 181.245 168.81 181.245 166.924 C 181.245 164.644 182.84 163.58 185.995 163.22 C 187.195 163.066 189.596 162.723 190.093 162.174 L 190.093 165.655 Z  M 223.01 155.247 C 222.153 150.48 218.877 147.754 212.704 147.754 C 206.068 147.754 201.593 150.857 201.593 155.967 C 201.593 160.168 204.645 162.449 208.881 163.46 L 213.51 164.506 C 215.191 164.884 216.717 165.398 216.717 167.216 C 216.717 168.742 214.814 169.994 212.241 169.994 C 209.652 169.994 207.646 168.656 207.012 166.255 L 200.65 166.976 C 201.679 171.948 205.348 174.932 211.95 174.932 C 218.5 174.932 223.542 171.914 223.542 166.461 C 223.542 162.226 220.524 160.237 216.477 159.345 L 211.59 158.299 C 209.635 157.87 208.195 157.03 208.195 155.538 C 208.195 153.824 210.184 152.726 212.43 152.726 C 214.985 152.726 216.614 154.132 216.957 155.864 L 223.01 155.247 Z  M 240.46 148.097 L 235.865 148.097 L 235.865 142.472 L 229.212 142.472 L 229.212 148.097 L 225.936 148.097 L 225.936 153.035 L 229.212 153.035 L 229.212 167.387 C 229.212 172.017 232.675 174.778 236.671 174.778 C 239.105 174.778 240.769 174.315 241.266 174.109 L 240.22 168.982 C 239.774 169.102 239.14 169.188 238.522 169.188 C 237.065 169.188 235.865 168.828 235.865 166.375 L 235.865 153.035 L 240.46 153.035 L 240.46 148.097 Z " fill-rule="evenodd" fill="rgb(67,188,150)"/></g></svg>