<?xml version="1.0" standalone="no"?><!-- Generator: Gravit.io --><svg xmlns="http://www.w3.org/2000/svg" xmlns:xlink="http://www.w3.org/1999/xlink" style="isolation:isolate" viewBox="71 225.414 55 55" width="55" height="55"><g id="Group"><g id="Group"><path d=" M 93.001 252.914 C 93.001 255.952 95.462 258.412 98.5 258.412 C 101.538 258.412 103.999 255.952 103.999 252.914 C 103.999 249.876 101.538 247.415 98.5 247.415 C 95.462 247.415 93.001 249.876 93.001 252.914 Z " fill="rgb(26,26,26)"/><path d=" M 104.069 262.35 L 107.114 266.926 C 111.83 264.022 114.999 258.859 114.999 252.914 C 114.999 243.803 107.614 236.414 98.5 236.414 C 89.389 236.414 82.001 243.803 82.001 252.914 C 82.001 258.859 85.17 264.022 89.883 266.926 L 92.934 262.35 C 89.695 260.433 87.499 256.949 87.499 252.914 C 87.499 246.838 92.424 241.913 98.5 241.913 C 104.576 241.913 109.501 246.838 109.501 252.914 C 109.501 256.949 107.302 260.44 104.069 262.35 Z " fill="rgb(26,26,26)"/><path d=" M 98.5 225.414 C 83.313 225.414 71 237.727 71 252.914 C 71 262.672 76.119 271.196 83.783 276.073 L 86.831 271.498 C 80.645 267.604 76.499 260.766 76.499 252.914 C 76.499 240.765 86.351 230.912 98.5 230.912 C 110.649 230.912 120.501 240.765 120.501 252.914 C 120.501 260.766 116.352 267.61 110.165 271.498 L 113.217 276.073 C 120.881 271.196 126 262.672 126 252.914 C 126 237.727 113.69 225.414 98.5 225.414 Z " fill="rgb(26,26,26)"/><path d=" M 88.188 280.414 L 108.813 280.414 L 98.5 263.226 L 88.188 280.414 Z " fill="rgb(26,26,26)"/></g></g></svg>