<?xml version="1.0" standalone="no"?><!-- Generator: Gravit.io --><svg xmlns="http://www.w3.org/2000/svg" xmlns:xlink="http://www.w3.org/1999/xlink" style="isolation:isolate" viewBox="71 306 342.63 57.752" width="342.63" height="57.752"><g id="Group"><g id="Group"><g id="Group"><path d=" M 93.001 335.876 C 93.001 338.914 95.462 341.375 98.5 341.375 C 101.538 341.375 103.999 338.914 103.999 335.876 C 103.999 332.838 101.538 330.377 98.5 330.377 C 95.462 330.377 93.001 332.838 93.001 335.876 Z " fill="rgb(255,255,255)"/><path d=" M 104.069 345.312 L 107.114 349.888 C 111.83 346.984 114.999 341.821 114.999 335.876 C 114.999 326.765 107.614 319.377 98.5 319.377 C 89.389 319.377 82.001 326.765 82.001 335.876 C 82.001 341.821 85.17 346.984 89.883 349.888 L 92.934 345.312 C 89.695 343.395 87.499 339.911 87.499 335.876 C 87.499 329.8 92.424 324.875 98.5 324.875 C 104.576 324.875 109.501 329.8 109.501 335.876 C 109.501 339.911 107.302 343.402 104.069 345.312 Z " fill="rgb(255,255,255)"/><path d=" M 98.5 308.376 C 83.313 308.376 71 320.689 71 335.876 C 71 345.635 76.119 354.158 83.783 359.035 L 86.831 354.46 C 80.645 350.566 76.499 343.728 76.499 335.876 C 76.499 323.727 86.351 313.875 98.5 313.875 C 110.649 313.875 120.501 323.727 120.501 335.876 C 120.501 343.728 116.352 350.573 110.165 354.46 L 113.217 359.035 C 120.881 354.158 126 345.635 126 335.876 C 126 320.689 113.69 308.376 98.5 308.376 Z " fill="rgb(255,255,255)"/><path d=" M 88.188 363.376 L 108.813 363.376 L 98.5 346.188 L 88.188 363.376 Z " fill="rgb(255,255,255)"/></g></g><path d=" M 271.691 352.435 C 279.664 352.435 283.66 348.525 283.66 342.969 C 283.66 338.117 280.607 334.91 276.732 334.464 L 276.732 334.173 C 280.47 333.298 282.751 330.932 282.751 326.834 C 282.751 321.364 278.858 317.317 270.731 317.317 L 257.836 317.317 L 257.836 352.435 L 271.691 352.435 Z  M 264.609 323.01 L 270.576 323.01 C 274.743 323.01 276.098 325.136 276.098 327.571 C 276.098 330.589 274.057 332.184 270.216 332.184 L 264.609 332.184 L 264.609 323.01 Z  M 277.041 342.215 C 277.041 344.941 275.378 346.742 271.279 346.742 L 264.609 346.742 L 264.609 337.105 L 271.537 337.105 C 275.24 337.105 277.041 339.454 277.041 342.215 Z  M 303.905 340.706 C 303.905 344.804 302.053 347.291 299.069 347.291 C 296.549 347.291 294.662 345.593 294.662 342.455 L 294.662 326.097 L 288.009 326.097 L 288.009 342.644 C 288.009 350.034 292.485 352.778 296.754 352.778 C 300.081 352.778 302.619 351.286 304.059 349.331 L 304.333 349.331 L 304.333 352.435 L 310.575 352.435 L 310.575 326.097 L 303.905 326.097 L 303.905 340.706 Z  M 338.348 334.499 C 337.388 329.183 333.067 325.754 327.082 325.754 C 319.537 325.754 314.839 331.326 314.839 339.266 C 314.839 347.273 319.486 352.932 327.099 352.932 C 333.032 352.932 337.25 349.502 338.296 344.478 L 332.072 343.587 C 331.403 345.953 329.74 347.479 327.099 347.479 C 323.138 347.479 321.218 344.204 321.218 339.266 C 321.218 334.379 323.173 331.155 327.099 331.155 C 330.014 331.155 331.54 332.938 332.158 335.425 L 338.348 334.499 Z  M 358.799 352.435 L 366.103 352.435 L 355.747 337.328 L 365.469 326.097 L 357.667 326.097 L 349.488 335.819 L 349.093 335.819 L 349.093 317.317 L 342.44 317.317 L 342.44 352.435 L 349.093 352.435 L 349.093 344.153 L 351.391 341.563 L 358.799 352.435 Z  M 380.484 352.932 C 387.326 352.932 390.755 349.057 391.716 345.439 L 385.748 343.827 C 385.045 345.782 383.605 347.479 380.433 347.479 C 376.643 347.479 374.586 345.113 374.157 341.203 L 391.99 341.203 L 391.99 338.408 C 391.99 329.955 386.897 325.754 380.21 325.754 C 372.322 325.754 367.727 331.567 367.727 339.609 C 367.727 347.839 372.579 352.932 380.484 352.932 Z  M 380.158 331.155 C 383.657 331.155 385.68 333.521 385.68 336.625 L 374.346 336.625 C 375.049 333.161 377.106 331.155 380.158 331.155 Z  M 409.097 326.097 L 404.502 326.097 L 404.502 320.472 L 397.849 320.472 L 397.849 326.097 L 394.574 326.097 L 394.574 331.035 L 397.849 331.035 L 397.849 345.387 C 397.849 350.017 401.312 352.778 405.308 352.778 C 407.743 352.778 409.406 352.315 409.903 352.109 L 408.857 346.982 C 408.411 347.102 407.777 347.188 407.16 347.188 C 405.702 347.188 404.502 346.828 404.502 344.375 L 404.502 331.035 L 409.097 331.035 L 409.097 326.097 Z  M 171.271 328.343 C 169.556 321.004 163.846 316.837 156.816 316.837 C 147.882 316.837 141.315 323.576 141.315 334.927 C 141.315 346.227 147.882 352.915 156.816 352.915 C 163.846 352.915 169.505 348.799 171.237 341.546 L 164.601 340.809 C 163.572 344.787 160.554 346.793 156.816 346.793 C 151.758 346.793 148.088 343.107 148.088 334.927 C 148.088 326.731 151.758 322.959 156.816 322.959 C 160.554 322.959 163.658 324.999 164.687 329.08 L 171.271 328.343 Z  M 190.384 352.435 L 196.798 352.435 L 196.798 334.756 C 196.798 328.068 191.688 325.754 186.458 325.754 C 180.851 325.754 176.512 328.377 175.295 333.23 L 181.554 334.139 C 182.034 332.355 183.834 330.949 186.286 330.949 C 188.601 330.949 190.093 332.27 190.093 334.619 L 190.093 335.013 C 190.093 336.402 187.692 336.488 185.36 336.745 C 178.69 337.362 174.763 339.917 174.763 345.01 C 174.763 350.103 178.656 352.966 183.337 352.966 C 187.041 352.966 189.167 351.149 190.076 349.468 L 190.384 349.468 L 190.384 352.435 Z  M 190.093 343.655 C 190.093 345.953 187.864 347.925 184.932 347.925 C 182.737 347.925 181.245 346.81 181.245 344.924 C 181.245 342.644 182.84 341.58 185.995 341.22 C 187.195 341.066 189.596 340.723 190.093 340.174 L 190.093 343.655 Z  M 223.01 333.247 C 222.153 328.48 218.877 325.754 212.704 325.754 C 206.068 325.754 201.593 328.857 201.593 333.967 C 201.593 338.168 204.645 340.449 208.881 341.46 L 213.51 342.506 C 215.191 342.884 216.717 343.398 216.717 345.216 C 216.717 346.742 214.814 347.994 212.241 347.994 C 209.652 347.994 207.646 346.656 207.012 344.255 L 200.65 344.976 C 201.679 349.948 205.348 352.932 211.95 352.932 C 218.5 352.932 223.542 349.914 223.542 344.461 C 223.542 340.226 220.524 338.237 216.477 337.345 L 211.59 336.299 C 209.635 335.87 208.195 335.03 208.195 333.538 C 208.195 331.824 210.184 330.726 212.43 330.726 C 214.985 330.726 216.614 332.132 216.957 333.864 L 223.01 333.247 Z  M 240.46 326.097 L 235.865 326.097 L 235.865 320.472 L 229.212 320.472 L 229.212 326.097 L 225.936 326.097 L 225.936 331.035 L 229.212 331.035 L 229.212 345.387 C 229.212 350.017 232.675 352.778 236.671 352.778 C 239.105 352.778 240.769 352.315 241.266 352.109 L 240.22 346.982 C 239.774 347.102 239.14 347.188 238.522 347.188 C 237.065 347.188 235.865 346.828 235.865 344.375 L 235.865 331.035 L 240.46 331.035 L 240.46 326.097 Z " fill-rule="evenodd" fill="rgb(255,255,255)"/></g></svg>